<svg xmlns="http://www.w3.org/2000/svg" viewBox="0 0 120 120" role="img" aria-labelledby="title desc">
  <title id="title">T-Sim People</title><desc id="desc">Símbolo visual da visão People.</desc>
  <rect width="120" height="120" rx="28" fill="#F4F7F9" stroke="#D7E2EA" stroke-width="2"/>
  <path d="M20 21h44v10H48v18H36V31H20z" fill="#071B30"/>
  <path d="M57 40c0-7 6-13 14-13 4 0 7 1 10 3v9c-3-2-5-3-8-3-3 0-5 1-5 3 0 2 1 3 5 4 6 2 10 5 10 10 0 7-6 12-15 12-4 0-8-1-11-3v-9c3 2 6 3 9 3s5-1 5-3c0-2-1-3-5-4-6-2-9-4-9-9z" fill="#1769AA"/>
  <circle cx="93" cy="22" r="5" fill="#167D62"/>
  <g color="#1769AA"><circle cx="46" cy="45" r="12" fill="none" stroke="currentColor" stroke-width="5"/><circle cx="78" cy="47" r="9" fill="none" stroke="currentColor" stroke-width="5"/><path d="M25 88c2-16 11-24 21-24s19 8 21 24M63 88c1-11 7-17 15-17 8 0 14 6 16 17" fill="none" stroke="currentColor" stroke-width="5" stroke-linecap="round"/></g>
</svg>